<?xml version="1.0" standalone="no"?>
<!DOCTYPE svg PUBLIC "-//W3C//DTD SVG 20010904//EN"
 "http://www.w3.org/TR/2001/REC-SVG-20010904/DTD/svg10.dtd">
<svg version="1.0" xmlns="http://www.w3.org/2000/svg"
 width="614.000000pt" height="602.000000pt" viewBox="0 0 614.000000 602.000000"
 preserveAspectRatio="xMidYMid meet">
<metadata>
Created by potrace 1.16, written by Peter Selinger 2001-2019
</metadata>
<g transform="translate(0.000000,602.000000) scale(0.100000,-0.100000)"
fill="#000000" stroke="none">
<path d="M3896 5893 c-6 -6 -125 -15 -244 -17 -67 -2 -125 -6 -129 -10 -11
-11 -63 -7 -63 5 0 8 -4 8 -14 0 -8 -7 -49 -12 -97 -11 -46 0 -122 0 -169 -1
-47 0 -143 0 -214 1 -70 0 -137 -2 -147 -5 -12 -4 -19 -2 -19 7 0 9 -3 10 -8
2 -12 -18 -147 -27 -173 -12 -17 10 -23 10 -26 1 -5 -14 -63 -18 -63 -5 0 6
-105 9 -381 11 -36 0 -77 5 -91 10 -19 7 -28 7 -32 -2 -3 -9 -7 -8 -15 3 -6 8
-11 10 -11 4 0 -6 -12 -11 -27 -11 -16 0 -48 -3 -73 -6 -31 -5 -39 -4 -25 2
19 9 19 10 -2 10 -13 1 -23 -4 -23 -9 0 -7 -6 -7 -19 0 -25 13 -34 13 -26 0 9
-15 -58 -12 -74 3 -11 10 -13 10 -7 0 10 -17 -28 -16 -79 2 -44 16 -71 19 -40
4 20 -9 4 -8 -75 6 -13 2 -30 -1 -37 -7 -7 -6 -13 -6 -13 -1 0 5 -9 9 -19 9
-11 0 -17 -4 -15 -8 3 -5 -27 -6 -68 -3 -71 5 -394 18 -453 18 -16 0 -103 -2
-192 -6 -92 -3 -165 -2 -168 3 -3 5 -15 6 -28 1 -12 -5 -36 -7 -52 -5 -71 8
-258 14 -275 9 -13 -4 -21 -21 -26 -58 -5 -29 -8 -60 -6 -69 1 -10 -3 -18 -8
-18 -6 0 -10 -8 -10 -17 0 -14 2 -15 9 -5 9 15 31 -155 31 -243 0 -29 3 -56 8
-58 7 -5 6 167 -3 283 -3 36 -2 89 1 118 l6 53 51 -2 c29 -1 65 -6 81 -11 31
-8 436 -10 656 -3 126 4 346 -8 357 -19 3 -3 0 -41 -8 -83 -8 -47 -13 -149
-13 -255 l0 -177 -60 6 c-34 3 -65 9 -71 13 -13 10 -355 5 -380 -6 -19 -8 -19
-7 -2 10 10 10 16 25 12 34 -3 8 2 23 11 33 19 21 25 85 7 82 -7 -2 -10 3 -7
11 5 14 -60 46 -94 46 -10 0 -24 6 -30 13 -7 6 -16 12 -21 12 -4 0 -27 20 -51
45 -24 25 -38 38 -33 30 6 -8 13 -25 17 -36 6 -18 2 -21 -21 -21 -15 0 -29 -6
-31 -12 -2 -6 -8 -9 -13 -6 -4 3 -11 -6 -15 -21 -4 -17 -2 -29 7 -35 10 -6 8
-9 -8 -9 -14 0 -23 -6 -23 -16 0 -9 -5 -12 -12 -8 -6 4 -8 3 -4 -4 3 -6 2 -13
-4 -17 -5 -3 -10 -1 -10 4 0 6 -8 11 -17 11 -14 0 -15 -2 -4 -9 11 -7 10 -12
-5 -29 -10 -12 -22 -18 -27 -15 -5 3 -8 0 -5 -8 7 -22 44 -18 40 5 -2 11 1 16
10 14 7 -3 12 -12 10 -21 -2 -11 2 -15 13 -11 8 3 15 1 15 -5 0 -6 -5 -11 -11
-11 -6 0 -9 -7 -5 -15 4 -10 -1 -15 -14 -15 -11 0 -20 -6 -20 -12 0 -7 -9 -2
-19 12 -19 23 -21 24 -68 12 -27 -7 -71 -12 -99 -11 -27 2 -57 -1 -66 -5 -12
-6 -18 -2 -22 16 -2 13 -2 -312 1 -722 14 -1682 14 -1698 -12 -2285 -3 -66 -7
-167 -10 -225 -6 -170 -20 -303 -34 -329 -10 -18 -10 -22 0 -16 10 7 11 -11 5
-86 -4 -52 -10 -137 -12 -189 -2 -52 -6 -122 -9 -155 -3 -33 -7 -159 -10 -280
-3 -121 -8 -278 -11 -350 -3 -71 -7 -197 -8 -280 -2 -82 -6 -173 -11 -201 -4
-28 -4 -54 1 -56 5 -3 97 -2 204 3 107 5 283 10 390 10 107 1 227 5 265 10 70
8 969 19 1350 17 213 -1 223 -1 865 6 228 3 507 1 620 -5 113 -5 338 -11 500
-14 300 -5 549 -16 765 -34 66 -6 237 -15 380 -21 143 -5 287 -12 320 -15 147
-14 184 -13 196 1 9 11 10 92 5 327 -4 171 -8 395 -10 497 -1 102 -6 437 -10
745 -4 308 -11 621 -15 695 -5 74 -7 178 -6 230 1 52 5 356 8 675 9 788 26
1584 38 1730 5 66 14 190 20 275 5 85 15 182 20 215 31 172 37 279 17 292 -7
4 -103 8 -213 10 -110 1 -240 5 -290 8 -49 3 -288 7 -530 9 -242 2 -467 6
-500 10 -33 4 -103 9 -155 11 -52 2 -95 4 -95 5 0 2 -336 5 -339 3z m684 -50
c101 -8 104 -9 73 -22 -26 -11 -33 -19 -33 -42 0 -26 -3 -28 -39 -26 -44 1
-88 -23 -100 -56 -10 -26 -54 -53 -70 -42 -6 3 -27 -9 -46 -28 -28 -28 -35
-43 -35 -75 0 -23 6 -45 15 -52 8 -7 12 -16 10 -21 -3 -4 3 -12 12 -18 16 -9
16 -12 3 -21 -14 -9 -12 -11 7 -9 3 0 13 -15 21 -33 13 -30 15 -31 22 -13 13
31 11 45 -5 39 -8 -4 -15 -2 -15 4 0 6 -3 19 -6 29 -4 14 -4 15 4 4 5 -7 14
-11 19 -8 12 7 33 -35 33 -63 0 -11 5 -20 11 -20 5 0 7 5 4 10 -3 6 -1 10 4
10 6 0 11 5 11 11 0 5 -5 7 -11 3 -8 -4 -9 0 -4 15 4 14 3 21 -5 19 -19 -4
-23 19 -6 25 12 5 20 -7 32 -49 12 -43 18 -53 29 -44 9 8 14 8 17 -1 3 -9 9
-9 26 0 14 7 22 8 22 2 0 -6 7 -8 15 -5 8 4 15 12 15 20 0 8 -7 14 -15 14 -8
0 -15 5 -15 10 0 6 5 10 10 10 6 0 10 4 10 10 0 5 -5 9 -11 7 -6 -1 -13 9 -14
23 -2 14 -1 19 1 12 3 -6 9 -10 14 -7 5 3 14 -20 21 -50 7 -33 17 -55 26 -55
7 0 13 5 13 10 0 6 -5 10 -11 10 -6 0 -9 6 -6 14 3 8 1 17 -6 20 -9 3 -8 8 3
15 13 9 13 12 1 20 -7 5 -11 13 -7 19 3 6 0 13 -6 15 -8 4 -7 6 4 6 12 1 20
-13 29 -54 12 -53 21 -66 34 -45 3 6 1 10 -4 10 -6 0 -11 7 -11 15 0 23 19 18
30 -7 7 -19 9 -20 9 -5 1 14 6 17 22 12 20 -7 21 -5 16 24 -5 24 -3 31 9 31
11 0 14 -6 10 -16 -3 -8 1 -22 9 -30 8 -9 15 -24 15 -36 0 -22 21 -20 28 3 3
11 2 11 -7 -1 -9 -13 -11 -13 -11 2 0 9 -3 24 -7 34 -5 13 -3 15 7 9 8 -5 11
-3 8 6 -3 8 -11 13 -17 12 -13 -3 -14 26 -2 46 8 12 11 9 16 -12 4 -15 10 -25
14 -23 3 2 7 -30 9 -71 l3 -75 -43 7 c-61 10 -130 9 -228 -3 -48 -5 -90 -6
-96 -1 -6 5 -48 9 -95 9 -115 0 -116 0 -129 31 -13 31 -30 41 -50 29 -7 -4
-34 -2 -62 5 -45 12 -50 12 -61 -6 -7 -11 -23 -19 -39 -19 -18 0 -29 -7 -33
-20 -6 -18 -15 -20 -83 -20 -43 0 -91 -3 -107 -8 -17 -4 -50 -5 -75 -2 -37 4
-46 9 -48 27 -5 32 30 35 45 3 12 -23 12 -23 7 13 -7 43 2 49 17 11 16 -44 20
-20 4 26 -19 55 -19 59 6 53 16 -5 19 -11 14 -30 -3 -15 0 -29 9 -38 20 -20
29 -19 21 4 -3 11 -1 22 4 25 5 4 13 -3 16 -14 5 -16 10 -18 19 -11 7 6 15 8
18 6 3 -3 3 6 0 21 -3 19 -7 22 -13 12 -7 -11 -11 -10 -19 2 -7 11 -5 18 5 26
18 14 20 36 2 32 -7 -2 -13 2 -14 7 -1 6 5 9 13 7 9 -2 14 6 15 25 l1 28 9
-30 c5 -16 7 -35 5 -41 -2 -6 2 -11 10 -11 7 0 17 10 20 21 7 21 7 21 15 1 12
-31 10 -48 -5 -42 -20 8 -38 -13 -25 -30 8 -9 17 -10 29 -3 13 7 20 6 24 -7 4
-9 9 -14 11 -11 3 3 -4 30 -14 61 -19 55 -19 57 -2 57 23 0 50 -58 33 -69 -8
-5 -5 -12 8 -24 19 -16 20 -16 20 1 0 14 2 15 10 2 8 -13 10 -13 10 2 0 9 -6
21 -13 25 -7 4 -21 27 -30 51 -16 40 -16 42 2 42 10 0 21 -9 24 -21 4 -16 3
-18 -9 -8 -9 7 -14 8 -14 1 0 -6 8 -15 17 -21 10 -5 23 -24 30 -43 l13 -33 -5
33 c-3 20 -1 31 5 27 6 -3 10 -1 10 4 0 6 -7 11 -15 11 -18 0 -19 7 -3 24 11
11 15 9 26 -13 l12 -26 -5 27 c-3 14 -8 33 -11 42 -7 19 21 23 32 4 4 -7 3 -8
-4 -4 -8 5 -12 0 -12 -14 0 -11 7 -23 16 -27 11 -4 14 -13 10 -29 -5 -18 -2
-24 9 -24 16 0 15 21 -5 90 -7 24 -7 37 2 45 8 7 9 5 5 -7 -4 -12 -1 -18 9
-18 11 0 13 6 9 20 -5 15 -2 20 14 20 15 0 23 -12 36 -52 21 -65 32 -78 32
-39 0 17 -5 28 -10 24 -6 -4 -8 3 -5 15 4 12 3 20 -2 17 -4 -3 -11 2 -14 11
-11 28 -7 37 10 23 13 -10 17 -10 25 2 6 10 9 10 9 2 0 -7 6 -13 13 -13 15 0
40 -47 33 -59 -3 -4 1 -8 9 -8 18 0 18 2 4 29 -9 17 -8 24 5 33 11 8 14 19 9
31 -6 17 -5 18 13 4 15 -11 16 -11 7 0 -7 8 -13 26 -13 42 0 48 -44 63 -182
63 -65 -1 -112 3 -105 7 6 4 23 8 37 8 70 1 92 28 43 53 -21 11 -62 13 -173
10 -161 -4 -210 1 -210 22 0 9 15 15 48 18 75 6 716 -2 832 -10z m-1467 -10
c48 -4 73 -9 65 -14 -14 -9 -5 -12 30 -9 12 1 22 -3 22 -8 0 -14 -53 -22 -67
-10 -7 6 -13 7 -13 3 0 -4 -8 -1 -17 6 -15 11 -16 11 -5 -1 17 -20 15 -35 -3
-20 -13 11 -14 10 -9 -5 5 -13 4 -16 -5 -10 -7 4 -2 -11 10 -33 13 -22 27 -36
30 -30 4 6 10 4 17 -7 5 -10 14 -15 21 -11 15 10 14 17 -9 46 -11 14 -18 18
-15 9 4 -10 0 -16 -10 -16 -8 0 -13 3 -10 5 3 3 -3 11 -13 19 -9 8 -11 12 -4
8 6 -3 12 -2 12 2 0 5 16 9 35 10 19 0 35 -2 35 -6 0 -13 62 -113 67 -107 3 3
-4 20 -16 39 -11 19 -21 38 -21 43 1 13 40 -39 40 -53 0 -6 5 -15 10 -18 7 -4
9 2 5 17 -6 25 9 57 22 45 4 -5 1 -12 -6 -16 -11 -7 -10 -13 4 -35 20 -30 27
-33 19 -8 -4 12 0 10 15 -7 23 -26 27 -21 10 12 -9 19 -8 19 12 -3 11 -14 25
-25 29 -25 5 0 12 -3 16 -7 10 -11 26 -10 20 1 -4 5 -1 11 5 13 17 6 -7 48
-27 48 -8 0 -14 7 -12 16 2 11 -5 18 -19 20 -13 2 -23 -1 -23 -6 0 -6 5 -10
10 -10 6 0 10 -6 10 -14 0 -8 5 -16 12 -18 6 -2 9 -11 6 -18 -3 -10 -10 -5
-21 17 -13 24 -22 31 -35 26 -13 -5 -14 -3 -5 7 6 7 9 19 6 26 -6 17 2 18 28
4 15 -9 19 -7 19 5 0 9 6 15 13 12 6 -2 12 -15 12 -29 0 -15 4 -24 11 -21 6 2
14 -4 18 -14 9 -26 56 -100 56 -89 0 5 -12 29 -26 54 -21 36 -23 44 -10 39 10
-4 15 -3 11 3 -3 6 -2 10 2 10 12 0 34 -40 28 -50 -3 -5 3 -26 14 -47 11 -21
20 -34 21 -30 0 5 -5 17 -11 29 -6 11 -8 22 -6 25 3 3 15 -14 27 -37 12 -23
24 -39 27 -36 4 3 12 1 20 -6 11 -9 12 -7 6 8 -10 28 -73 137 -85 149 -5 6 7
-20 27 -57 50 -92 31 -86 -24 7 -44 73 -61 90 -61 60 0 -8 -4 -15 -10 -15 -5
0 -10 6 -10 13 0 19 -43 63 -48 49 -2 -7 -8 -10 -13 -6 -5 3 -9 0 -9 -6 0 -6
-4 -8 -10 -5 -5 3 -10 13 -10 21 0 8 5 12 10 9 11 -7 14 8 4 18 -9 8 -45 -33
-39 -43 3 -4 -2 -13 -10 -20 -13 -11 -14 -10 -10 2 3 8 -3 22 -14 32 -11 10
-18 23 -15 27 3 5 -3 9 -13 9 -16 0 -16 -1 -1 -17 16 -15 16 -18 -4 -35 -21
-18 -38 -23 -38 -12 0 4 7 12 16 19 13 9 14 16 6 32 -11 19 -8 20 103 21 90 1
114 -2 119 -13 6 -16 36 -10 36 7 0 6 -7 8 -15 4 -8 -3 -15 -1 -15 4 0 6 15
10 33 10 24 0 28 -3 17 -10 -12 -8 -11 -10 8 -10 12 0 22 5 22 10 0 6 5 10 10
10 6 0 10 -7 10 -16 0 -11 6 -14 20 -9 12 4 20 2 20 -5 0 -6 -4 -8 -10 -5 -13
8 -13 -1 0 -26 6 -10 18 -19 28 -19 15 -1 15 -2 -2 -11 -15 -9 -16 -13 -5 -20
22 -14 37 -11 42 9 3 9 5 -1 5 -23 0 -31 -1 -35 -8 -20 -9 20 -9 20 -9 0 -1
-12 4 -26 10 -32 6 -6 9 -17 6 -25 -3 -8 -9 -3 -15 14 -13 33 -43 68 -53 63
-4 -3 -7 1 -6 8 1 43 -4 56 -23 54 -24 -2 -26 -22 -4 -35 9 -5 15 -11 13 -13
-1 -2 8 -23 20 -46 22 -44 19 -57 -5 -25 -18 23 25 -77 44 -103 11 -16 13 -16
9 -2 -4 9 -2 17 3 17 6 0 10 -47 10 -115 l0 -115 -62 -1 c-35 -1 -76 -4 -93
-8 -21 -5 -33 -2 -41 8 -10 13 -15 13 -27 2 -13 -10 -27 -10 -70 -1 -40 8 -61
8 -83 0 -16 -7 -46 -13 -66 -15 -30 -3 -38 0 -44 17 -10 34 -116 134 -166 157
-25 12 -49 28 -52 36 -4 11 -16 13 -51 8 -30 -4 -45 -2 -45 6 0 6 -8 19 -18
29 -10 10 -23 33 -28 52 -6 19 -16 34 -22 33 -6 -2 -9 4 -5 13 4 10 -1 17 -15
21 -12 3 -27 18 -34 34 -7 16 -20 31 -28 34 -9 3 -17 16 -18 30 -2 25 17 35
61 33 19 -1 19 -1 11 -23 -6 -14 -8 -14 -23 -1 -12 11 -21 12 -31 5 -12 -8
-12 -9 4 -7 10 2 21 -3 24 -11 3 -8 0 -11 -7 -7 -7 5 -9 1 -5 -8 3 -9 10 -16
15 -16 14 0 49 38 49 53 0 7 11 14 25 15 14 1 25 -3 25 -8 0 -5 7 -7 15 -4 8
4 15 2 15 -4 0 -6 -6 -12 -12 -15 -7 -2 -10 -8 -5 -12 4 -5 12 -4 18 2 6 6 18
9 25 6 8 -3 14 1 14 11 0 10 -6 13 -15 10 -11 -5 -13 -2 -9 9 4 11 23 17 62
20 32 1 64 1 72 -1 8 -2 50 -6 93 -9z m2392 -3 c99 -5 248 -9 332 -9 83 1 156
-2 162 -5 15 -10 14 -75 -4 -176 -8 -47 -17 -115 -20 -152 -6 -67 -7 -68 -35
-68 -16 0 -32 5 -36 11 -5 8 -31 10 -80 6 -57 -4 -74 -2 -78 9 -3 8 -12 14
-21 14 -18 0 -20 -17 -3 -22 13 -5 20 -38 8 -38 -5 0 -10 5 -12 11 -5 15 -191
12 -257 -3 -52 -11 -38 -11 -366 -1 -239 8 -240 8 -243 31 -2 16 3 25 20 31
17 7 19 10 6 10 -16 1 -18 15 -18 159 0 86 -3 167 -6 179 -6 21 -3 22 72 26
104 4 356 -1 579 -13z m-3864 -12 c10 -13 18 -18 19 -11 0 6 -6 13 -12 16 -7
2 -10 7 -7 11 7 7 59 -39 59 -52 0 -5 7 -15 15 -22 16 -13 22 -55 6 -46 -4 3
-6 -7 -4 -22 l4 -27 -23 28 c-13 15 -27 27 -32 27 -4 0 0 -7 8 -16 9 -8 16
-24 16 -34 0 -10 7 -21 16 -24 8 -3 12 -10 9 -16 -3 -5 -2 -10 4 -10 5 0 26
-25 46 -55 48 -71 55 -71 15 1 -39 67 -34 83 6 19 16 -25 32 -45 37 -45 4 0
-3 17 -16 38 -53 86 -54 123 -2 60 15 -19 22 -24 16 -11 -7 14 -8 24 -1 28 5
3 12 -6 16 -20 3 -13 10 -22 15 -19 5 3 8 -7 8 -23 -1 -16 -3 -21 -6 -11 -2
10 -10 15 -19 11 -18 -7 -18 -23 1 -23 18 0 34 -30 27 -50 -2 -8 -1 -12 3 -8
5 4 14 3 22 -3 16 -14 18 -33 1 -23 -7 5 -8 3 -3 -5 5 -9 10 -10 18 -2 7 7 3
21 -16 47 -14 21 -24 41 -21 46 8 12 24 0 24 -18 0 -8 4 -13 10 -9 5 3 6 13 3
23 -5 12 1 10 22 -8 26 -23 27 -24 16 -3 -6 12 -16 25 -21 28 -20 12 -10 32
15 30 28 -4 32 4 13 24 -11 10 -10 11 5 6 9 -4 17 -13 17 -19 0 -7 12 -19 26
-26 22 -12 27 -12 34 0 10 16 11 15 29 -15 l13 -20 -7 20 c-19 53 -19 61 -3
48 8 -7 18 -10 21 -7 4 4 11 -5 16 -19 10 -25 26 -40 49 -43 17 -3 16 1 -15
54 -33 59 -17 44 31 -28 20 -30 36 -50 36 -45 0 6 -6 19 -13 30 -7 11 -24 38
-37 60 l-24 40 24 -20 23 -20 -6 20 c-6 16 -3 15 13 -5 11 -14 20 -29 20 -35
1 -5 5 -1 9 10 5 11 4 30 -2 42 -7 16 -6 27 3 38 10 13 8 22 -15 55 -15 22
-31 37 -35 35 -5 -3 -6 4 -3 14 3 13 10 18 21 14 10 -4 13 -2 8 5 -4 7 -3 12
1 12 5 0 14 -9 21 -21 12 -19 11 -20 -8 -14 -19 6 -20 4 -11 -12 5 -10 22 -31
36 -48 23 -27 25 -27 14 -5 -7 14 -17 28 -23 32 -6 4 -7 11 -2 15 4 4 14 -1
22 -11 8 -11 14 -15 14 -10 0 6 -5 15 -12 22 -21 21 1 26 24 6 l23 -19 -19 23
c-11 12 -26 20 -33 18 -7 -3 -15 -1 -18 4 -3 4 27 7 67 5 40 -2 79 1 85 7 8 6
28 7 50 2 21 -4 42 -6 47 -5 4 1 14 -4 22 -10 10 -8 14 -8 14 0 0 6 5 11 11
11 6 0 8 -9 3 -22 -4 -12 -7 -44 -7 -70 0 -26 -4 -48 -8 -48 -5 0 -9 5 -9 12
0 6 -3 8 -6 5 -4 -4 -2 -12 4 -19 6 -7 9 -42 7 -78 -2 -36 -4 -102 -4 -148
l-1 -83 -62 5 c-36 2 -82 -2 -109 -10 -34 -10 -54 -11 -74 -4 -14 5 -38 10
-53 10 -22 0 -33 10 -55 46 -15 26 -30 44 -33 41 -3 -3 2 -17 12 -31 9 -15 14
-29 11 -32 -3 -3 -22 22 -43 56 -22 36 -40 56 -44 50 -5 -8 -9 -6 -14 5 -3 9
-12 15 -20 12 -7 -3 -19 0 -26 6 -10 10 -10 8 -1 -10 17 -33 13 -38 -9 -12
-10 13 -19 20 -20 16 0 -5 15 -27 34 -50 36 -45 70 -106 63 -113 -10 -11 -157
-7 -214 5 -62 13 -85 34 -67 62 4 7 3 9 -4 5 -6 -3 -13 -2 -17 3 -3 5 2 14 11
19 15 8 15 11 -1 36 -21 32 -11 34 17 4 21 -24 15 -9 -12 32 -9 14 -28 42 -41
62 -26 41 -47 52 -28 16 11 -22 11 -22 -7 -8 -10 9 -31 15 -46 14 -24 -1 -26
1 -17 19 9 15 17 18 41 13 30 -6 30 -5 15 17 -9 13 -23 21 -35 19 -11 -2 -22
4 -25 11 -4 11 0 13 15 9 20 -5 20 -4 3 22 -19 29 -27 34 -19 11 7 -18 -10
-20 -24 -2 -7 8 -7 18 -2 27 6 8 10 11 10 6 0 -5 7 -3 15 4 12 10 15 10 15 -4
0 -9 5 -16 10 -16 6 0 10 5 10 10 0 18 27 10 44 -12 15 -22 16 -21 1 10 -13
27 -19 31 -35 22 -13 -7 -21 -7 -25 0 -5 8 -11 7 -21 -1 -8 -6 -14 -8 -14 -4
0 4 -7 2 -15 -5 -8 -7 -15 -9 -15 -6 0 4 -6 1 -14 -6 -18 -17 -9 -37 15 -31
10 3 19 0 19 -6 0 -6 -6 -11 -14 -11 -8 0 -22 -3 -31 -6 -14 -6 -15 1 -11 47
3 40 0 59 -12 72 -14 16 -12 17 42 17 48 0 61 -4 77 -22z m894 -208 c-3 -5 3
-18 15 -30 11 -11 20 -24 20 -29 0 -5 11 -16 25 -25 30 -20 32 -10 4 20 -14
15 -17 24 -9 29 7 4 14 -1 17 -14 3 -12 8 -21 12 -21 10 0 70 -60 82 -81 7
-13 3 -25 -16 -48 -25 -28 -30 -30 -100 -30 l-75 0 4 57 c2 31 4 75 5 97 l1
40 25 -30 c32 -39 32 -24 0 23 -27 40 -31 52 -14 52 5 0 8 -4 4 -10z m-1001
-125 c34 -52 52 -61 84 -41 9 6 42 -29 42 -44 0 -6 5 -10 10 -10 6 0 10 -4 10
-9 0 -12 -71 -28 -163 -36 -92 -9 -131 3 -133 40 -1 14 2 22 8 19 5 -3 0 12
-11 35 -12 22 -21 46 -21 53 0 7 9 -5 19 -27 12 -24 20 -33 20 -22 1 10 5 16
10 12 5 -3 19 7 30 21 13 16 21 21 22 13 0 -11 2 -11 6 -1 4 10 8 10 19 1 8
-6 14 -8 14 -3 0 5 9 -6 21 -25 11 -18 23 -30 26 -27 4 3 -8 27 -25 51 -18 25
-32 48 -32 50 0 14 13 0 44 -50z m1416 25 c6 -11 19 -20 29 -20 10 0 24 -7 31
-15 7 -9 19 -14 26 -11 14 5 44 -24 44 -43 0 -6 10 -16 23 -22 29 -13 67 -72
67 -104 0 -30 -4 -31 -37 -5 -14 11 -30 20 -35 20 -12 0 -102 -94 -140 -147
-32 -44 -57 -58 -125 -68 -23 -4 -57 -19 -76 -33 -46 -35 -170 -201 -194 -258
-10 -24 -21 -44 -25 -44 -5 0 -8 60 -8 133 -1 72 -3 171 -6 218 l-6 86 35 39
c19 21 64 72 99 113 102 119 183 172 275 180 7 1 17 -8 23 -19z m2575 -238
c27 -23 45 -66 45 -107 0 -25 4 -35 16 -35 10 0 12 5 7 13 -4 6 -6 21 -5 33 2
11 -2 33 -8 48 -10 27 -9 28 16 23 14 -2 42 -1 62 4 142 31 307 11 297 -35 -8
-36 -25 -307 -25 -410 l0 -99 -42 7 c-24 3 -71 9 -105 12 -49 5 -63 10 -63 23
0 10 5 22 12 29 6 6 9 15 5 19 -4 3 -14 -2 -22 -13 -15 -19 -16 -19 -31 4 -18
24 -44 30 -44 9 0 -8 -7 -14 -15 -14 -18 0 -18 2 -5 28 8 15 7 19 -5 19 -9 0
-15 9 -16 23 0 20 -1 21 -8 2 -8 -19 -8 -19 -20 0 -9 15 -11 16 -7 3 3 -10 1
-20 -4 -23 -6 -4 -5 -14 2 -25 7 -10 15 -17 19 -14 4 2 2 -7 -4 -20 -8 -17
-14 -21 -20 -13 -5 7 -6 1 -3 -15 7 -33 -10 -38 -20 -6 -6 19 -7 19 -16 5 -5
-10 -6 -22 -3 -27 3 -6 -1 -10 -9 -10 -11 0 -16 10 -17 33 0 17 -3 26 -6 19
-2 -6 -9 -10 -14 -6 -13 8 -11 -20 3 -34 8 -8 8 -12 1 -12 -6 0 -16 7 -23 15
-7 8 -19 15 -26 15 -8 0 -14 7 -14 15 0 8 9 15 20 15 26 0 26 21 0 43 -25 21
-39 21 -68 -2 -22 -16 -23 -19 -7 -34 23 -24 16 -61 -13 -65 -23 -4 -23 -3 -7
25 l17 28 -25 -27 c-17 -18 -36 -28 -54 -28 -45 0 -57 13 -49 54 6 34 -7 52
-17 24 -2 -7 -7 2 -11 20 -4 17 -10 32 -13 32 -10 0 -33 -29 -33 -43 0 -9 -3
-24 -7 -34 -6 -16 -8 -15 -13 6 -3 14 -12 27 -19 29 -10 3 -12 -2 -8 -19 3
-13 3 -29 -1 -34 -4 -6 -63 -10 -139 -10 l-132 0 5 210 c3 116 7 238 10 271
l5 62 200 -2 c109 -2 202 -5 205 -9 4 -3 1 -19 -5 -35 -10 -23 -17 -28 -37
-24 -17 3 -24 0 -24 -12 0 -10 8 -16 21 -16 20 0 21 -4 17 -59 -2 -33 -1 -58
2 -56 4 3 10 37 13 77 7 86 27 118 83 135 62 18 175 16 199 -5z m-4808 -21
c-5 14 7 15 96 12 193 -7 247 -13 247 -30 0 -8 6 -13 13 -10 6 2 11 10 10 16
-4 15 10 14 26 -1 11 -11 12 -10 6 0 -5 10 -1 13 16 10 12 -1 24 -9 27 -16 2
-7 -2 -12 -9 -11 -12 3 -82 -25 -99 -38 -2 -2 2 -8 10 -13 11 -7 6 -10 -19
-10 -29 0 -32 2 -21 15 16 19 14 21 -26 29 -22 5 -36 2 -47 -9 -15 -14 -22
-14 -87 1 -45 10 -89 14 -118 10 -115 -16 -161 -17 -203 -5 l-44 13 45 6 c25
3 52 1 61 -4 22 -12 89 19 89 41 0 14 2 14 16 -3 11 -14 14 -15 11 -3z m-199
-72 c61 -22 93 -23 211 -7 81 10 92 10 156 -12 39 -12 97 -25 130 -29 l60 -6
-35 -17 c-19 -9 -73 -20 -120 -23 -84 -7 -87 -7 -157 27 -70 34 -73 35 -189
32 -123 -2 -232 -23 -308 -59 -32 -15 -39 -16 -47 -4 -17 28 7 71 54 95 70 36
151 37 245 3z m4117 21 c3 -5 12 -7 20 -3 8 3 15 0 15 -6 0 -6 10 -11 23 -11
20 0 25 -9 40 -67 20 -78 21 -109 7 -118 -8 -5 -7 -11 1 -21 9 -11 9 -17 -1
-29 -7 -9 -8 -15 -2 -15 18 0 1 -37 -26 -57 -15 -11 -60 -27 -100 -36 -64 -15
-76 -15 -88 -3 -9 10 -11 17 -4 21 6 4 10 12 9 18 -1 7 -1 24 0 40 1 24 5 27
35 27 18 0 39 7 47 16 7 8 25 22 41 30 16 8 26 19 22 25 -3 6 3 13 15 16 26 7
26 18 1 63 -11 19 -22 43 -26 53 -3 9 -10 17 -14 17 -4 0 -25 7 -46 16 -34 15
-37 18 -19 25 28 11 43 11 50 -1z m181 -137 c-2 -65 -5 -148 -5 -184 -1 -51
-4 -66 -16 -66 -8 0 -15 5 -15 10 0 6 -11 0 -24 -12 -18 -17 -30 -21 -47 -16
-17 6 -26 2 -40 -16 -14 -19 -20 -21 -32 -11 -9 7 -27 10 -48 6 l-34 -7 26 21
c18 15 43 22 78 23 39 2 55 8 73 27 13 13 33 28 45 33 21 8 22 13 19 101 -2
51 0 98 5 105 7 7 6 14 -1 18 -5 3 -10 19 -10 34 0 15 -5 32 -12 39 -9 9 -6
12 15 12 l28 0 -5 -117z m-2791 70 c17 -3 38 -12 48 -18 10 -7 26 -11 35 -8
10 2 31 -1 47 -7 23 -9 26 -13 15 -20 -8 -5 -17 -5 -20 -1 -3 5 -15 11 -27 15
-17 5 -25 2 -34 -16 -7 -13 -17 -26 -23 -30 -21 -14 -73 -8 -99 12 -14 11 -31
20 -38 20 -7 0 -23 10 -35 21 -21 20 -25 20 -46 7 -28 -18 -98 -30 -98 -17 0
14 -48 11 -57 -5 -10 -17 -53 -31 -53 -17 0 6 7 11 15 11 8 0 15 9 15 19 0 28
23 33 157 32 76 -1 124 3 128 10 4 6 14 7 24 4 9 -4 30 -9 46 -12z m-1265 -49
l75 -36 95 11 c57 6 121 21 160 37 54 22 74 25 122 20 76 -8 140 -47 129 -79
-7 -18 -19 -23 -62 -28 -30 -4 -72 -3 -94 1 -22 5 -101 14 -176 20 -128 10
-140 10 -197 -9 -87 -29 -179 -27 -297 6 -91 25 -100 26 -193 16 -53 -6 -99
-9 -100 -8 -6 5 79 42 128 56 53 14 156 26 260 28 68 1 83 -3 150 -35z m2245
8 c4 -52 20 -81 64 -117 27 -22 52 -49 55 -60 5 -20 67 -55 97 -55 8 0 25 -12
38 -26 21 -21 22 -28 12 -50 -6 -14 -11 -34 -11 -44 0 -19 -8 -20 -119 -20
-66 0 -125 2 -133 5 -9 4 -13 23 -11 66 1 35 -5 76 -14 97 -13 31 -13 49 -3
129 7 52 15 91 19 88 3 -4 6 -10 6 -13z m-505 -99 l0 -43 -65 0 c-45 0 -64 4
-62 12 1 7 -11 15 -28 19 -47 10 -105 10 -105 -1 0 -5 10 -10 23 -10 31 0 67
-11 67 -20 0 -5 -13 -3 -30 3 -24 9 -36 8 -65 -6 -20 -9 -45 -17 -56 -17 -17
0 -20 5 -18 34 2 19 0 38 -4 42 -4 4 -7 16 -7 26 0 14 8 18 33 18 17 -1 43 -7
55 -14 29 -16 168 -10 196 8 14 9 26 10 43 2 19 -9 23 -19 23 -53z m-1080 47
c29 -15 227 -17 242 -2 19 19 28 14 28 -16 0 -33 -27 -75 -45 -68 -7 2 -26 -4
-43 -14 -23 -15 -38 -17 -68 -10 -22 5 -64 13 -96 20 -47 9 -57 15 -62 36 -6
22 7 64 20 64 3 0 14 -4 24 -10z m-867 -49 c112 -26 167 -26 253 0 72 22 75
22 274 -1 52 -7 134 -10 183 -8 73 2 87 1 87 -12 0 -13 -13 -16 -62 -17 -35
-1 -151 -3 -258 -5 -107 -2 -201 -7 -208 -12 -8 -4 -23 -1 -37 8 -18 12 -30
13 -50 6 -14 -5 -52 -7 -85 -3 -44 4 -71 1 -104 -11 -24 -9 -78 -18 -119 -20
-41 -2 -80 -7 -87 -11 -8 -5 -34 4 -66 21 -44 24 -54 34 -54 55 0 21 6 28 29
32 15 3 37 4 47 1 11 -3 30 -1 43 4 28 10 94 2 214 -27z m3925 -111 c3 -23 -2
-38 -13 -46 -22 -16 -2 -28 33 -20 20 5 23 4 11 -4 -9 -5 -54 -14 -100 -20
-46 -5 -99 -12 -118 -16 l-34 -6 26 31 c14 17 28 44 32 60 7 32 40 48 49 24
10 -25 7 -31 -14 -26 -27 7 -25 -7 4 -35 22 -20 26 -21 40 -6 9 8 16 32 16 53
0 45 6 53 40 49 21 -2 26 -9 28 -38z m-3243 -40 c18 0 35 3 38 8 2 4 2 1 1 -5
-5 -18 25 -16 32 2 8 21 34 19 34 -3 0 -10 -7 -27 -15 -38 -8 -12 -11 -24 -8
-28 15 -14 -22 -4 -58 16 -36 20 -41 21 -56 6 -11 -12 -22 -14 -39 -8 -17 7
-28 5 -39 -6 -10 -11 -24 -14 -44 -9 -17 3 -32 2 -36 -4 -4 -8 -12 -8 -27 0
-15 8 -27 8 -45 0 -18 -8 -32 -8 -58 4 -19 7 -35 10 -35 5 0 -4 -8 -7 -17 -5
-10 1 -29 -2 -41 -6 -28 -11 -43 -4 -35 16 3 10 20 15 50 15 40 0 45 2 40 19
-3 15 0 19 14 18 11 -1 19 -9 19 -19 0 -10 5 -18 10 -18 6 0 10 9 10 20 0 13
7 20 20 20 11 0 20 -4 20 -10 0 -5 -7 -7 -15 -4 -10 4 -15 0 -15 -15 0 -12 6
-21 13 -21 22 0 40 18 34 34 -4 10 -1 16 7 16 17 0 38 -24 29 -33 -3 -4 1 -7
9 -7 11 0 15 8 14 24 -2 14 2 27 9 30 8 3 10 -4 7 -19 -3 -19 0 -24 17 -22 24
1 26 8 9 25 -9 9 -8 12 5 12 9 0 17 -6 17 -14 0 -12 17 -14 40 -6 3 1 13 2 23
1 11 -2 17 5 18 21 1 17 3 18 6 6 3 -13 14 -18 38 -18z m2731 -25 c15 -15 90
-12 146 5 19 6 30 5 39 -6 8 -10 9 -14 0 -14 -9 0 -9 -5 -1 -20 6 -11 17 -20
25 -20 18 0 20 16 3 24 -7 3 -4 5 7 3 11 -1 21 -10 23 -20 3 -15 -7 -17 -89
-17 -84 0 -91 1 -73 15 19 14 19 14 -1 15 -11 0 -38 3 -60 6 -37 5 -39 4 -21
-10 27 -22 18 -27 -56 -33 -56 -4 -61 -3 -45 10 23 19 22 27 -6 27 -31 0 -77
-22 -77 -37 0 -9 -17 -13 -50 -13 -44 0 -50 3 -50 21 0 11 4 18 8 15 6 -4 229
50 260 63 2 0 10 -6 18 -14z m-3391 -85 c104 -25 283 -31 620 -21 471 15 1648
23 1699 11 99 -22 156 -25 413 -22 l272 3 10 -38 c5 -21 17 -65 25 -98 9 -33
42 -163 75 -290 32 -126 87 -333 121 -458 34 -126 67 -256 75 -290 7 -34 16
-74 20 -89 6 -25 3 -28 -47 -50 -29 -13 -89 -35 -133 -47 -44 -13 -96 -29
-115 -36 -19 -7 -80 -27 -135 -44 -231 -71 -331 -102 -343 -106 -7 -3 -22 17
-37 50 -27 62 -45 68 -112 40 -20 -8 -39 -13 -42 -9 -3 3 -7 76 -8 162 -1 86
-4 194 -8 239 -4 58 -3 82 6 85 9 3 9 9 0 25 -6 12 -11 58 -11 103 0 79 -17
140 -40 140 -5 0 -17 -11 -25 -24 -13 -19 -16 -57 -16 -196 0 -95 2 -174 5
-177 3 -3 0 -15 -5 -26 -8 -14 -8 -26 1 -42 8 -16 10 -44 6 -87 -4 -35 -8 -98
-9 -142 l-2 -79 -55 -18 c-30 -10 -64 -18 -76 -18 -11 -1 -25 -6 -31 -12 -6
-6 -35 -17 -65 -24 -29 -8 -62 -16 -73 -20 -16 -5 -25 4 -47 47 -16 28 -24 54
-20 57 16 11 19 47 7 65 -12 16 -17 16 -63 3 -27 -8 -67 -24 -89 -36 l-41 -20
-77 38 -77 37 -50 95 c-28 52 -82 155 -119 229 -71 142 -111 200 -138 200 -22
0 -93 -38 -108 -58 -19 -23 -16 -67 8 -115 19 -38 47 -107 100 -241 l20 -48
-67 7 c-87 9 -92 0 -49 -84 35 -71 50 -152 31 -175 -6 -7 -22 -16 -36 -19 -14
-3 -65 -17 -115 -31 -49 -14 -116 -31 -149 -37 -32 -5 -83 -21 -113 -35 l-55
-24 -49 43 c-38 34 -48 48 -49 74 0 23 -7 37 -24 48 -13 9 -29 30 -36 48 -111
293 -214 490 -321 611 l-34 40 33 -19 c30 -18 33 -18 61 -2 16 9 36 17 44 17
16 0 77 56 77 70 0 5 7 7 15 4 27 -11 42 15 49 79 4 34 14 72 22 84 8 13 17
43 21 68 3 25 10 48 14 51 12 7 11 121 -1 129 -5 3 -14 23 -19 43 -7 24 -31
57 -68 94 -47 46 -73 62 -133 83 -95 34 -137 41 -217 37 l-65 -4 -79 -79 c-77
-77 -79 -80 -79 -128 0 -44 -3 -51 -27 -63 -33 -16 -44 -52 -42 -143 2 -65 4
-72 34 -100 l32 -31 -25 -37 c-14 -20 -33 -67 -44 -104 -54 -188 -78 -281 -83
-322 -3 -26 -14 -111 -25 -191 -11 -80 -21 -165 -23 -190 -2 -25 -4 99 -5 275
-2 176 -7 462 -12 635 -5 173 -11 385 -13 472 l-4 156 31 11 c36 12 270 6 331
-9z m3704 -21 c37 -6 159 -9 285 -8 463 5 559 3 656 -14 79 -14 115 -15 215
-7 244 20 357 22 425 7 l65 -14 0 -54 c-1 -30 -5 -184 -10 -344 -5 -159 -9
-447 -8 -640 0 -206 -3 -323 -7 -285 -4 36 -8 106 -9 155 -1 79 -15 206 -37
341 -6 37 -4 43 15 49 34 10 25 51 -10 48 -23 -1 -29 5 -44 44 -10 24 -33 61
-53 80 -61 61 -101 126 -89 145 16 25 -30 131 -78 182 -87 90 -223 120 -348
76 -75 -27 -84 -33 -118 -85 -71 -109 -82 -142 -60 -183 5 -9 22 -53 37 -97
15 -44 33 -85 39 -90 7 -6 21 -27 31 -46 11 -20 28 -52 39 -73 20 -38 58 -57
77 -38 9 9 15 8 26 -1 8 -6 30 -13 50 -14 19 -1 39 -6 44 -11 10 -10 -162 -72
-297 -106 -103 -27 -195 -56 -210 -66 -5 -4 -35 -15 -65 -25 -30 -10 -110 -39
-177 -66 -147 -58 -255 -83 -473 -109 -91 -11 -175 -22 -186 -25 -18 -4 -23 1
-27 23 -6 35 -78 312 -124 476 -20 72 -44 164 -53 205 -10 42 -47 177 -83 301
-36 124 -67 232 -69 240 -4 19 60 27 312 38 205 9 217 9 319 -9z m960 -496
c28 -19 44 -37 48 -55 4 -18 12 -28 24 -28 10 0 35 -11 55 -25 44 -30 42 -30
74 -6 20 16 22 22 11 35 -17 20 -5 56 18 56 27 0 43 -24 44 -65 1 -20 6 -35
13 -35 26 0 32 -65 12 -131 -8 -24 -29 -55 -52 -76 -32 -29 -43 -34 -69 -29
-17 4 -34 11 -37 16 -4 6 -17 9 -30 8 -16 -2 -25 2 -26 12 -2 30 -4 31 -28 3
-21 -24 -26 -26 -40 -14 -9 8 -29 39 -43 69 -14 30 -34 63 -45 74 -11 11 -31
53 -46 95 l-26 75 27 24 c36 31 63 30 116 -3z m-4159 -48 c0 -29 -25 -95 -36
-95 -4 0 -12 7 -19 16 -10 15 -16 15 -48 3 -41 -14 -46 -24 -19 -33 9 -3 25
-11 35 -18 15 -11 21 -10 34 7 14 19 15 18 9 -20 -3 -22 -6 -53 -6 -69 0 -26
-3 -28 -27 -23 -16 3 -37 9 -48 13 -20 7 -20 7 -2 -14 22 -24 14 -46 -14 -37
-11 4 -19 2 -19 -4 0 -6 5 -11 11 -11 5 0 7 -4 4 -10 -3 -5 -13 -10 -22 -10
-8 0 -30 -7 -49 -16 -34 -16 -36 -16 -61 7 -49 45 -83 110 -83 158 0 37 5 49
33 74 80 72 85 75 189 79 58 2 103 9 110 16 19 19 28 14 28 -13z m4505 -25 c5
0 19 10 32 22 22 20 24 20 42 4 11 -10 25 -31 32 -47 11 -29 10 -32 -37 -80
-27 -28 -57 -55 -68 -61 -17 -9 -18 -7 -13 18 6 32 -18 121 -39 145 -8 8 -14
24 -14 34 0 16 4 15 28 -8 15 -15 32 -27 37 -27z m-4983 -210 c29 -11 71 -34
92 -52 84 -70 126 -111 121 -118 -3 -4 2 -11 11 -14 8 -3 12 -10 9 -16 -3 -5
0 -10 8 -10 8 0 17 -8 21 -17 3 -10 19 -36 35 -58 40 -54 147 -272 156 -318 2
-10 19 -54 38 -97 31 -72 33 -80 17 -85 -41 -13 -169 -31 -220 -30 -46 0 -55
3 -54 17 1 10 -1 16 -5 14 -10 -6 -62 50 -101 109 -18 28 -51 71 -72 96 -21
26 -38 50 -38 54 0 4 -18 28 -41 53 -23 26 -50 65 -61 87 -12 22 -29 51 -38
65 -36 51 -49 288 -17 328 14 18 79 15 139 -8z m4836 -211 c-7 -13 -28 -41
-45 -63 -18 -22 -33 -45 -33 -51 0 -6 -20 -42 -45 -79 -25 -38 -45 -71 -45
-74 0 -12 -86 -150 -117 -186 -18 -22 -33 -48 -33 -58 0 -10 -4 -18 -9 -18
-17 0 -50 -65 -45 -87 5 -18 -2 -26 -38 -43 -23 -12 -55 -33 -69 -47 -29 -27
-39 -27 -144 1 -32 9 -88 16 -123 16 l-64 0 7 41 c15 86 94 245 181 360 27 36
64 87 82 113 18 26 37 44 42 41 10 -6 170 35 215 55 11 5 47 16 80 25 33 10
87 29 120 45 98 45 104 45 83 9z m-4943 -179 c26 -44 59 -93 73 -108 15 -16
43 -51 62 -78 19 -27 40 -55 46 -61 44 -45 63 -113 32 -113 -5 0 -7 -4 -4 -8
5 -9 -38 -52 -52 -52 -4 0 -16 -28 -27 -62 -24 -80 -22 -71 -38 -153 l-13 -70
-27 59 c-25 55 -39 93 -73 206 -16 55 -38 191 -38 242 0 21 -3 33 -7 27 -15
-25 -21 227 -8 336 0 6 7 -11 14 -37 7 -26 34 -84 60 -128z m-179 -233 c4
-149 12 -225 30 -287 24 -81 29 -130 13 -130 -28 0 -90 36 -95 57 -3 11 -3 45
0 75 3 29 6 89 7 133 1 63 11 156 28 264 1 2 4 1 8 -3 4 -3 8 -53 9 -109z
m1526 47 c198 -27 299 -59 497 -157 29 -14 131 -105 131 -117 0 -4 -17 -12
-38 -17 -34 -9 -42 -7 -68 13 -16 13 -33 24 -38 24 -5 0 -28 8 -50 18 -165 75
-209 93 -266 111 -69 21 -180 41 -224 41 -14 0 -26 6 -26 13 0 7 -11 29 -25
50 -14 20 -21 37 -16 37 6 0 61 -7 123 -16z m4058 -439 c-7 -160 -9 -335 -4
-430 4 -88 8 -306 9 -485 1 -179 5 -535 10 -793 l8 -467 -49 -2 c-97 -4 -627
28 -1009 62 -60 5 -292 12 -515 16 -223 4 -421 8 -440 10 -19 2 -150 6 -290
11 l-255 7 160 13 c88 7 210 24 270 37 61 13 157 34 215 46 123 27 474 142
534 176 22 13 47 24 53 24 7 0 54 26 103 58 50 31 103 63 118 70 54 28 148 86
172 107 14 12 57 41 95 63 80 46 287 223 356 303 111 131 227 304 254 379 9
25 27 70 40 100 13 30 33 93 45 140 11 47 28 112 36 145 42 165 81 465 85 665
1 41 4 62 7 45 2 -16 -1 -151 -8 -300z m-5120 243 c0 -3 16 -23 35 -44 19 -20
35 -45 35 -55 0 -21 58 -81 71 -73 5 3 9 1 9 -4 0 -5 39 -48 86 -96 l87 -86
-49 0 c-26 0 -82 10 -123 22 -59 16 -105 21 -204 22 l-128 1 6 40 c4 22 11 54
16 70 5 17 14 49 19 73 7 26 28 61 55 92 25 28 45 55 45 60 0 6 9 5 20 -2 11
-7 20 -16 20 -20z m4380 -180 c0 -5 6 -8 13 -8 6 0 24 -16 40 -35 l27 -34 -70
-79 c-68 -77 -74 -82 -227 -156 -87 -43 -188 -93 -225 -112 -37 -19 -71 -34
-75 -34 -4 0 -8 35 -8 78 l0 78 64 54 c35 30 75 68 90 85 65 74 207 202 249
226 l47 26 37 -41 c20 -23 37 -44 38 -48z m-3949 45 c68 -57 195 -189 210
-219 9 -18 56 -65 103 -105 82 -69 86 -75 86 -113 0 -23 3 -65 6 -93 5 -38 3
-53 -5 -53 -14 0 -79 45 -227 157 -38 29 -93 69 -121 90 -29 21 -53 43 -53 48
0 6 -13 20 -29 33 -108 85 -245 222 -222 222 6 0 12 0 14 1 1 0 45 13 97 29
52 16 98 29 102 29 3 1 21 -11 39 -26z m2884 8 c-3 -11 -3 -30 0 -44 6 -22 13
-25 67 -29 43 -3 65 -10 74 -22 17 -24 54 -5 54 27 0 36 20 50 42 30 22 -20
24 -78 3 -87 -11 -4 -14 -13 -9 -31 8 -30 1 -32 -25 -4 -10 11 -22 16 -25 11
-8 -14 30 -44 51 -40 10 2 18 12 19 23 0 11 5 30 12 42 7 12 12 29 12 37 0 18
16 21 25 6 3 -5 15 -10 26 -10 10 0 19 -6 19 -13 0 -15 -44 -84 -84 -132 l-25
-30 -1 27 c0 15 -4 30 -10 33 -6 4 -10 -13 -10 -44 0 -39 -6 -56 -27 -83 -52
-63 -77 -68 -135 -27 -15 10 -38 19 -52 19 -16 0 -27 7 -31 20 -7 21 -30 27
-40 10 -3 -5 -15 -10 -26 -10 -23 0 -36 29 -44 102 -4 43 -11 58 -35 79 -17
14 -30 30 -30 35 0 5 37 29 83 53 45 24 91 50 102 57 26 18 28 18 20 -5z
m-2089 -67 c-6 -23 11 -64 27 -64 4 0 25 11 47 25 22 14 58 32 80 41 38 16 44
15 81 -1 21 -10 39 -20 39 -22 0 -2 -9 -22 -21 -44 -11 -23 -24 -60 -27 -82
-7 -38 -10 -42 -40 -45 -18 -2 -32 1 -32 7 0 6 -5 11 -11 11 -7 0 -9 -11 -6
-27 6 -32 -7 -63 -27 -63 -7 0 -18 -12 -24 -26 -7 -14 -16 -23 -21 -20 -4 3
-19 -6 -31 -19 -31 -33 -40 -31 -70 9 -34 46 -152 133 -201 147 -44 14 -45 18
-24 60 14 26 19 29 53 23 35 -5 41 -3 73 33 49 54 114 96 132 86 5 -3 6 -16 3
-29z m1787 -84 c37 -6 78 -8 91 -4 14 3 27 1 31 -6 7 -11 25 -80 21 -80 0 0
-33 7 -71 15 -39 8 -98 15 -133 15 -50 0 -70 5 -102 26 -24 16 -46 24 -56 20
-24 -9 -105 4 -98 16 3 5 12 7 18 5 7 -3 37 -2 67 2 64 8 138 5 232 -9z
m-3538 -92 c-11 -129 33 -281 166 -575 10 -24 19 -45 19 -47 0 -2 16 -28 35
-57 19 -30 35 -57 35 -62 0 -4 25 -45 55 -90 97 -144 316 -366 494 -499 42
-31 82 -62 88 -68 7 -5 23 -14 35 -19 13 -5 66 -40 118 -77 158 -115 187 -131
375 -214 22 -9 105 -38 185 -63 80 -25 181 -57 225 -71 142 -47 224 -65 338
-77 62 -7 139 -18 172 -25 54 -12 28 -13 -250 -12 -417 1 -1523 -20 -1660 -32
-60 -5 -208 -9 -327 -9 l-218 -1 0 66 c0 37 5 141 10 233 6 91 19 323 30 514
11 191 22 352 25 357 3 5 10 143 16 307 5 164 12 334 14 378 1 44 3 110 4 148
1 39 5 67 11 67 7 0 9 -25 5 -72z m1009 -128 l49 -35 -49 -3 c-52 -4 -301 30
-394 53 l-55 14 40 2 c193 9 342 13 351 9 6 -3 32 -21 58 -40z m4026 2 c0 -2
-19 -33 -42 -68 -30 -45 -47 -62 -58 -58 -8 4 -58 21 -109 39 -89 30 -93 33
-60 38 18 3 77 17 129 30 85 22 140 30 140 19z m-300 -168 c74 -14 138 -29
142 -32 4 -4 -1 -17 -10 -28 -16 -21 -20 -21 -77 -8 -33 7 -122 13 -197 13
l-138 1 0 40 0 40 73 0 c39 0 133 -12 207 -26z m-796 -31 c-9 -21 -21 -52 -26
-69 -10 -31 -12 -32 -90 -39 -43 -3 -89 -8 -101 -10 -12 -2 -65 -9 -117 -14
-52 -6 -160 -20 -240 -30 -186 -25 -446 -46 -485 -39 -16 3 -91 21 -165 41
-74 20 -187 43 -250 52 -116 16 -310 18 -365 4 -29 -8 -92 -17 -127 -18 -23
-1 -24 -43 -2 -75 13 -21 19 -23 47 -15 18 5 82 12 144 16 109 6 113 5 230
-32 65 -21 123 -41 128 -45 6 -4 26 -11 45 -15 30 -6 236 -72 546 -175 50 -16
100 -30 111 -30 11 0 40 -7 64 -16 24 -8 71 -19 104 -23 l60 -8 -55 -2 c-30 0
-109 6 -176 13 -121 15 -180 25 -419 73 -71 14 -152 28 -180 30 -27 2 -120 11
-205 21 -85 9 -203 16 -262 16 -84 -1 -108 1 -108 12 0 7 -5 36 -11 64 -9 44
-13 49 -26 38 -12 -10 -18 -8 -33 12 -11 14 -24 44 -29 66 -10 38 -16 44 -65
64 -31 12 -60 28 -67 36 -15 18 -4 18 29 -1 15 -8 42 -21 60 -30 l33 -16 -4
33 c-2 18 -11 48 -21 66 -16 30 -16 32 1 32 10 0 56 5 103 10 108 12 215 -4
361 -53 171 -58 224 -69 404 -78 234 -12 456 9 645 61 58 16 150 36 205 44 55
8 134 21 175 27 41 7 80 12 86 11 6 -1 17 5 24 13 7 8 19 15 26 15 12 0 11 -7
-2 -37z m-2566 -102 c6 -20 14 -52 17 -71 l6 -36 -98 -17 c-54 -10 -125 -20
-158 -22 -33 -2 -100 -7 -150 -11 -66 -5 -113 -2 -176 10 -47 9 -99 16 -116
16 -26 0 -37 9 -80 73 l-50 72 71 -3 c39 -2 110 -12 158 -23 48 -10 104 -19
125 -19 53 0 209 29 273 50 30 10 80 18 111 17 56 -1 57 -1 67 -36z m2512 -28
c-1 -27 -40 -128 -49 -125 -7 1 -29 -7 -50 -17 -32 -17 -62 -20 -187 -22 -105
-2 -149 1 -152 9 -2 6 -22 16 -44 22 -32 9 -44 8 -62 -3 -33 -22 -204 -4 -223
23 -10 15 -27 20 -61 21 -43 2 -17 4 198 23 30 2 89 9 130 15 41 6 147 20 235
31 143 18 187 23 248 28 9 1 17 -1 17 -5z m791 -57 c20 -8 39 -12 43 -9 3 4 6
2 6 -4 0 -5 -8 -18 -19 -27 -14 -13 -51 -20 -145 -27 -70 -6 -129 -9 -131 -8
-2 2 0 29 3 59 7 53 8 55 42 60 35 6 134 -16 201 -44z m-3231 -144 c0 -5 -8
-17 -19 -26 -15 -14 -44 -17 -162 -20 -148 -4 -208 -13 -316 -47 -50 -17 -66
-18 -85 -8 -25 13 -78 59 -78 69 0 3 39 2 88 -3 145 -14 476 7 522 34 19 11
50 11 50 1z m2633 -140 c3 -4 -9 -7 -26 -7 -27 0 -32 -4 -35 -25 -2 -24 -2
-24 12 -7 19 24 47 15 69 -22 21 -36 22 -61 2 -61 -13 0 -13 -3 -3 -20 11 -17
10 -22 -2 -30 -12 -8 -11 -10 6 -10 18 0 23 8 28 44 6 36 10 43 25 39 10 -3
22 0 25 6 15 23 25 8 45 -67 26 -97 26 -99 -1 -108 -58 -18 -155 -71 -205
-111 l-55 -45 -34 18 c-19 10 -34 24 -34 31 0 7 -9 13 -20 13 -16 0 -19 5 -14
29 4 21 2 30 -11 34 -12 5 -15 3 -11 -11 5 -13 -1 -23 -20 -32 -31 -17 -36
-11 -53 64 -7 32 -22 62 -36 76 -29 27 -33 68 -7 77 9 4 28 15 41 25 25 19 81
25 81 9 0 -19 32 -41 59 -41 15 0 36 -7 47 -15 28 -21 42 -18 57 12 12 23 12
31 0 61 -12 30 -12 37 2 58 15 23 58 33 68 16z m-2485 -67 c2 -2 -2 -13 -8
-25 -9 -17 -8 -26 5 -46 20 -31 28 -30 74 7 38 30 83 43 153 43 51 0 65 -15
44 -45 -9 -14 -16 -44 -16 -74 0 -67 -9 -79 -54 -72 -34 5 -48 -4 -26 -18 15
-10 12 -25 -7 -32 -10 -3 -28 -17 -40 -31 l-23 -25 -49 46 c-47 44 -122 77
-177 77 -12 0 -36 3 -53 6 -29 6 -31 9 -31 50 0 42 1 44 29 44 30 0 81 47 81
75 0 8 4 16 9 20 6 3 9 -22 8 -62 -2 -64 -1 -68 22 -71 16 -3 22 0 18 10 -2 7
-10 12 -16 11 -14 -4 -15 14 -1 22 6 4 7 13 1 23 -4 10 -4 32 1 50 8 28 12 32
31 26 12 -3 23 -8 25 -9z m912 -146 c69 -11 175 -24 235 -29 61 -5 124 -14
140 -19 47 -15 329 -7 410 12 105 25 215 36 207 21 -10 -17 -135 -148 -183
-191 -39 -35 -41 -36 -117 -34 -42 1 -153 11 -247 22 -311 35 -354 40 -412 43
-146 9 -171 16 -224 64 -46 41 -109 121 -109 138 0 10 160 -4 300 -27z m1841
10 c11 -6 70 -11 130 -11 68 0 112 -5 118 -12 5 -6 14 -45 21 -86 7 -41 16
-79 20 -83 10 -12 0 -48 -11 -41 -14 8 -69 -6 -69 -17 0 -6 18 -8 40 -6 39 4
72 -14 56 -30 -9 -10 -128 -11 -241 -4 -74 5 -90 9 -93 23 -4 19 20 18 57 -1
24 -13 74 -15 67 -2 -3 4 -32 14 -64 21 -58 13 -59 14 -70 57 -18 66 -18 66
43 61 47 -4 53 -3 43 10 -9 10 -26 13 -59 10 -44 -5 -46 -3 -57 26 -16 40 -1
54 33 32 15 -10 29 -15 33 -12 7 8 -28 35 -45 36 -15 0 -15 2 -7 24 7 19 27
20 55 5z m-665 -392 c2 -2 -24 -24 -57 -49 l-60 -47 -152 5 c-240 7 -315 14
-296 27 11 8 244 51 312 58 43 4 82 10 85 14 7 7 161 0 168 -8z m-1558 -38
c53 -11 158 -36 233 -55 124 -32 153 -36 323 -41 102 -3 186 -9 186 -13 0 -20
-156 -85 -211 -89 -13 -1 -18 -5 -13 -13 5 -8 2 -9 -12 -4 -69 29 -143 30
-145 3 0 -7 -4 -3 -9 8 -5 11 -9 14 -9 8 -1 -16 -64 -10 -69 6 -2 6 -8 11 -13
11 -6 0 -22 9 -37 20 -15 11 -49 22 -75 24 -61 6 -162 58 -266 138 -24 18 -24
18 -2 18 12 0 66 -9 119 -21z m893 -125 c59 -10 153 -16 217 -15 61 1 112 0
112 -2 0 -3 -27 -15 -60 -27 -34 -13 -74 -35 -90 -50 -28 -26 -31 -26 -95 -17
-47 7 -98 6 -169 -2 -169 -21 -243 -24 -262 -12 -18 10 -18 10 3 11 12 0 25 5
28 10 3 6 23 11 43 11 20 1 29 3 19 6 -14 3 4 18 65 54 45 27 83 49 84 49 0 0
47 -7 105 -16z m614 -434 c143 -6 402 -13 575 -15 173 -3 365 -10 425 -15 61
-6 180 -15 265 -20 86 -5 163 -12 173 -16 15 -5 17 -23 17 -148 0 -79 -3 -198
-7 -266 l-6 -123 -91 7 c-50 4 -185 13 -301 22 -115 8 -413 19 -661 23 -248 4
-456 11 -461 14 -12 7 -147 8 -1303 2 -1034 -5 -1544 -13 -1730 -30 -39 -3
-50 4 -45 33 4 22 11 247 14 474 l1 36 75 0 c41 0 79 3 84 6 11 7 664 16 1529
20 348 2 635 5 637 7 6 7 546 -1 810 -11z m-3341 -52 c-63 -47 -97 -85 -125
-140 -20 -39 -39 -63 -62 -74 -17 -9 -77 -62 -131 -117 l-99 -101 6 184 c4
102 7 202 7 222 l0 37 63 4 c34 2 131 4 216 5 l154 2 -29 -22z m172 -238 c-3
-107 -5 -214 -6 -237 0 -34 -3 -40 -18 -36 -15 3 -17 15 -16 74 1 83 -12 129
-52 172 -15 18 -27 35 -26 39 1 3 4 39 8 79 6 80 22 112 69 140 l30 19 8 -28
c4 -15 6 -115 3 -222z m-106 221 c0 -5 -7 -14 -15 -21 -8 -7 -15 -25 -15 -41
0 -23 -5 -29 -22 -30 l-23 -2 23 -4 c18 -4 22 -11 21 -36 -2 -30 -2 -31 -6 -4
-4 22 -9 27 -32 27 -33 0 -53 -20 -78 -76 -10 -22 -24 -39 -30 -37 -8 3 -11
-3 -8 -17 2 -11 0 -18 -5 -15 -5 3 -11 -3 -13 -12 -3 -10 -4 0 -2 22 4 53 14
75 34 76 10 0 11 2 4 6 -7 2 -13 9 -13 15 0 6 7 8 15 5 8 -4 17 -2 20 3 4 6
-1 10 -10 10 -9 0 -13 5 -10 11 4 6 13 8 21 5 7 -3 16 -1 19 4 4 6 -1 10 -10
10 -14 0 -14 2 0 24 21 32 91 80 104 71 6 -3 11 -1 11 4 0 6 5 11 10 11 6 0
10 -4 10 -9z m5150 -31 c0 -5 -6 -7 -13 -4 -8 3 -14 -2 -14 -11 0 -16 10 -16
51 1 13 5 17 4 12 -4 -4 -7 1 -10 13 -9 11 0 18 4 15 8 -2 4 11 7 29 6 28 -1
33 -5 33 -27 1 -23 -2 -26 -22 -22 -14 2 -24 0 -24 -7 0 -6 -7 -11 -15 -11
-24 0 -18 -19 10 -32 31 -14 43 -4 24 18 -13 16 -12 17 11 11 14 -4 33 -7 43
-7 9 0 17 -7 17 -15 0 -11 -7 -14 -24 -9 -28 7 -43 -11 -26 -31 10 -12 9 -15
-3 -15 -9 0 -19 5 -23 11 -3 6 -16 8 -28 5 -11 -2 -30 2 -40 10 -11 8 -14 14
-8 14 7 0 12 4 12 9 0 13 -45 8 -59 -6 -8 -9 -5 -16 16 -27 30 -15 33 -24 12
-36 -7 -5 -20 2 -33 17 -20 23 -24 24 -70 13 -36 -8 -51 -8 -56 0 -4 7 -44 14
-89 17 -44 3 -81 8 -81 10 0 3 7 11 15 19 8 9 15 11 15 5 0 -6 5 -11 11 -11 6
0 9 7 5 15 -4 10 6 20 31 30 48 20 49 20 47 -15 -2 -30 10 -48 20 -31 4 5 2
12 -4 16 -5 3 -10 11 -10 16 0 6 3 8 8 5 4 -2 16 3 27 11 20 15 20 15 -3 10
-37 -9 -15 10 34 29 37 14 47 15 54 4 5 -7 13 -9 21 -5 8 5 5 -1 -5 -13 -21
-24 -46 -31 -27 -8 10 12 8 14 -16 11 -15 -2 -29 -4 -31 -4 -2 -1 3 -8 12 -16
23 -24 61 -19 76 10 12 22 11 27 -6 40 -18 13 -17 14 19 15 20 0 37 -4 37 -10z
m-5415 -210 c-9 -14 8 -13 23 2 7 7 12 9 12 5 0 -4 -16 -21 -35 -38 -19 -17
-35 -34 -35 -39 0 -4 24 -6 53 -4 28 2 44 1 35 -2 -10 -3 -18 -10 -18 -16 0
-7 -5 -7 -12 -1 -18 13 -41 10 -46 -6 -4 -11 6 -13 48 -9 67 7 43 -7 -30 -17
-30 -4 -66 -13 -80 -19 -14 -7 -34 -11 -45 -10 -15 2 -16 2 -2 -2 9 -3 17 -8
17 -10 0 -11 -86 -104 -96 -104 -6 0 -11 14 -12 30 -1 26 15 47 99 131 54 55
99 96 99 92 0 -5 -5 -14 -12 -21 -8 -8 -8 -12 -1 -12 13 0 34 24 32 36 -2 14
0 24 7 24 3 0 2 -4 -1 -10z m5185 -155 c4 -3 10 1 13 7 3 10 12 9 38 -3 66
-31 101 -39 116 -27 15 12 63 -4 63 -22 0 -5 18 -10 41 -10 22 0 38 3 36 8 -3
4 14 7 38 7 24 0 41 -3 38 -7 -2 -5 1 -8 6 -8 6 0 11 -15 11 -32 l-1 -33 -15
29 c-11 19 -19 25 -23 17 -10 -16 -158 -16 -176 -1 -8 7 -18 9 -24 6 -5 -3
-11 1 -15 9 -8 21 -26 19 -27 -2 -1 -16 -2 -16 -6 0 -4 15 -12 18 -39 15 -19
-2 -34 0 -34 4 0 4 -11 8 -25 8 -14 0 -25 -5 -25 -12 0 -9 -3 -9 -12 0 -10 10
-15 7 -25 -10 -10 -19 -12 -20 -13 -5 0 9 -6 17 -14 17 -8 0 -16 5 -18 12 -8
24 -35 15 -53 -18 -24 -45 -10 -63 34 -44 16 6 34 9 39 6 5 -3 24 -1 42 4 34
10 170 -13 170 -29 0 -8 15 -10 88 -13 28 -2 52 -6 52 -11 0 -4 9 -3 19 3 11
5 30 9 43 9 l23 -2 -22 -4 c-13 -2 -23 -8 -23 -12 0 -11 -109 -6 -140 6 -14 6
-31 8 -39 5 -8 -3 -20 3 -27 13 -10 13 -21 16 -43 12 -17 -4 -33 -2 -37 4 -7
12 -117 3 -122 -10 -1 -4 -13 -6 -26 -4 -13 3 -27 0 -30 -6 -16 -25 -23 -7
-25 62 l-2 74 81 -3 c45 -2 85 -6 90 -9z m-5075 -21 c19 -14 40 -27 47 -28 20
-3 80 -37 75 -42 -6 -6 -379 -26 -384 -20 -9 9 79 105 101 109 11 2 45 5 74 6
43 1 60 -4 87 -25z"/>
<path d="M5378 5223 c-36 -23 -58 -68 -49 -102 8 -27 67 -75 82 -65 5 3 9 1 9
-5 0 -5 -4 -13 -10 -16 -5 -3 -10 -1 -10 5 0 7 -12 9 -30 6 -16 -2 -30 0 -30
5 0 6 -4 7 -10 4 -5 -3 -10 -12 -10 -19 0 -12 29 -14 108 -7 6 0 12 8 12 16 0
9 11 20 24 25 17 6 28 21 35 46 13 48 -8 90 -54 110 -41 17 -34 17 -67 -3z"/>
<path d="M2768 562 c-7 -26 3 -83 13 -76 5 3 9 15 9 27 0 21 1 21 13 -3 18
-36 61 -49 86 -26 11 10 22 28 24 40 3 14 5 10 6 -12 1 -31 3 -33 37 -30 20 1
38 8 41 15 7 19 44 16 59 -4 11 -15 13 -15 13 -3 0 23 -33 85 -44 84 -6 0 -19
-17 -30 -37 -27 -49 -55 -50 -55 -2 0 33 -14 48 -22 23 -3 -7 -12 -6 -30 6
-30 19 -73 13 -88 -13 -9 -15 -9 -15 -10 1 0 24 -17 31 -22 10z"/>
</g>
</svg>
